<svg xmlns="http://www.w3.org/2000/svg" viewBox="0 0 180 240" fill="none">
  <defs>
    <filter id="fiber" x="-8%" y="-8%" width="116%" height="116%">
      <feTurbulence type="fractalNoise" baseFrequency="0.9" numOctaves="2" seed="4" result="n"/>
      <feDisplacementMap in="SourceGraphic" in2="n" scale="5" xChannelSelector="R" yChannelSelector="G"/>
    </filter>
    <linearGradient id="wash" x1="0" y1="0" x2="1" y2="1">
      <stop offset="0" stop-color="#a3aa82"/>
      <stop offset="0.55" stop-color="#8d946c"/>
      <stop offset="1" stop-color="#7e8660"/>
    </linearGradient>
  </defs>
  <path filter="url(#fiber)" fill="url(#wash)" d="M92 18c18 4 34 22 38 42 6 28-8 40 4 62 10 18 22 28 16 48-8 26-40 34-62 28-28-8-36 16-58 8-18-6-28-28-22-48 6-22-10-36-6-58 4-24 22-34 36-50 12-14 34-38 54-32z"/>
  <path fill="#9aa184" opacity="0.55" d="M78 46c10 2 16 12 14 22-4 16-22 14-28 2-4-10 4-26 14-24z"/>
</svg>
